<svg xmlns="http://www.w3.org/2000/svg" xmlns:xlink="http://www.w3.org/1999/xlink" width="31" height="32" viewBox="0 0 31 32"><defs><path id="10raa" d="M781.83 6154.08a15.42 15.42 0 1 1-30.83 0 15.42 15.42 0 0 1 30.83 0zm-2.4 0a13 13 0 1 0-26.02 0 13 13 0 0 0 26.01 0zm-13.2-7.08s1.37.85 1.37 2.5-.8 2.37-1.8 3.25c-1.01.9-.43 1.42 1.15 2.54 1.57 1.12 2.01 3.6-.02 5.4-2.04 1.8-8.23 1.55-8.23-1.78 0-3.34 4.66-3.39 5.04-3.39.37 0 .44-.1.12-.44-.31-.34-.82-1-.23-1.71-1.05.04-3.94-.53-3.94-3.2 0-2.66 2.79-3.8 3.8-3.8h5.01s-.23.19-.75.48c-.53.3-1.52.15-1.52.15zm-1.4 8.99c-2.83 0-4.35.76-4.35 2.3 0 1.55 1.12 2.59 3.2 2.59 2.07 0 3.29-.7 3.29-2.14 0-1.44-1.37-2.16-2.14-2.75zm-1.55-9.11c-2.94 0-1.8 5.83.69 5.83 3.31 0 1.6-5.92-.7-5.83zm8.96 1.42h1.89v.99h-1.89v1.9h-.98v-1.9h-1.92v-.99h1.92v-1.9h.98z"/></defs><g><g transform="translate(-751 -6138)"><use fill="#b2b2b2" xlink:href="#10raa"/></g></g></svg>