<?xml version="1.0" ?><!DOCTYPE svg  PUBLIC '-//W3C//DTD SVG 1.1//EN'  'http://www.w3.org/Graphics/SVG/1.1/DTD/svg11.dtd'><svg height="512px" style="enable-background:new 0 0 512 512;" version="1.1" viewBox="0 0 512 512" width="512px" xml:space="preserve" xmlns="http://www.w3.org/2000/svg" xmlns:xlink="http://www.w3.org/1999/xlink"><g id="形状_2_3_" style="enable-background:new    ;"><g id="形状_2"><g><path d="M194.866,180.507h47.165v75.166h19.982v-75.166h47.165     V160.52H194.866V180.507z M370.625,179.461c8.873,0,72.26,0,72.26,0v-19.836c0,0-44.074,0-72.409,0     c-28.336,0-43.699,15.958-43.699,47.872c0,27.441,10.294,48.591,45.041,48.591c34.751,0,71.067,0,71.067,0v-19.956     c0,0-54.812,0-70.172,0c-15.365,0-26.102-3.013-26.102-28.276S361.749,179.461,370.625,179.461z M129.916,159.477     c-30.127,0-26.174,0.148-32.96,0.148c-5.439,0-13.749,2.206-18.294,5.77v-36.73H59.038v127.424h19.623v-54.855     c0-10.437,7.258-22.218,20.979-22.218h31.318c13.272,0,23.118,7.009,23.118,22.369c0,15.361,0,54.583,0,54.583l19.984,0.121     c0,0,0-43.666,0-56.343C174.061,178.712,160.042,159.477,129.916,159.477z" style="fill-rule:evenodd;clip-rule:evenodd;fill:#63B32E;"/></g></g></g><g id="形状_2_2_" style="enable-background:new    ;"><g id="形状_2_1_"><g><path d="M216.212,330.873c-6.816,0-3.407,9.401-10.575,9.401     c-7.168,0,1.058-15.394-5.404-15.394c-3.056,0-5.052,3.995-5.052,11.751c0,7.754,3.172,12.219,8.107,12.219     c4.935,0,7.167-2.702,7.167-2.702c0,25.731-18.212,30.549-24.438,30.549c-2.819,0-7.168-0.588-7.168,3.172     c0,3.759,2.938,4.467,6.58,4.467c19.504,0,34.074-16.333,34.074-38.658C219.502,340.978,220.38,330.873,216.212,330.873z      M186.099,346.162c0.832-6.078,4.167-24.592,6.667-33.214c2.5-8.621-0.1-10.715-3.124-10.246     c-5.937,0.919-7.73,17.547-12.086,42.896c-0.67,3.899,1.042,6.995,4.098,6.995C183.198,352.593,185.265,352.239,186.099,346.162z      M112.287,299.621c-1.982,0-4.847,0.88-4.847,4.053c0,3.172,2.379,5.904,5.816,5.904c3.437,0,4.229-2.026,4.229-3.877     S116.517,299.621,112.287,299.621z M107.44,322.709c-6.961,0-8.9,18.504-8.9,22.295c0,3.788,1.498,5.198,3.789,5.198     c5.023,0,3.701-7.138,6.697-16.303C111.313,326.905,111.494,322.709,107.44,322.709z M139.958,339.98     c-4.162,6.613-11.124,5.314-12.891-0.113c5.833-0.546,12.626-3.191,12.626-9.845c0-5.816-3.525-7.313-6.786-7.313     c-5.614,0-9.538,3.543-11.359,9.48c-0.629-0.187-1.286-0.316-2.035-0.316c-1.234,0-2.468,1.058-2.468,3.084     c0,1.43,0.785,3.321,3.386,4.323c-0.018,0.463-0.037,0.926-0.037,1.404c0,7.844,5.728,10.311,10.486,10.311     c7.05,0,12.513-5.463,12.513-9.869C143.394,338.57,142.333,336.205,139.958,339.98z M135.012,329.847     c0,1.586-2.104,4.229-6.422,4.229c-0.552,0-1.058-0.039-1.53-0.1C128.651,327.901,134.162,325.439,135.012,329.847z      M166.441,314.634c-0.957,0.124-1.88,0.226-2.768,0.309c3.026-6.873,7.342-15.321,0.782-15.321     c-3.438,0-6.703,7.267-9.128,15.715c-7.298,0.059-10.519-0.404-10.423,3.966c0.055,2.481,0.128,4.338,6.869,3.362     c0.608-0.088,1.176-0.151,1.759-0.227c-1.435,6.478-2.294,12.683-2.294,16.045c0,14.893,11.631,13.395,11.631,8.9     c0-2.997-3.306-1.939-3.306-9.253c0-2.952,0.336-10.038,1.817-16.363c10.095-0.46,14.442,0.729,14.342-3.905     C175.658,314.865,174.096,313.653,166.441,314.634z M86.82,323.413c-3.877,0-7.843,15.95-14.893,15.95     c-4.582,0,3.261-15.422,3.261-18.683c0-3.26-2.203-3.788-3.79-3.788c-5.551,0-8.107,11.632-8.107,19.959     s2.027,12.293,6.521,12.293c6.962,0,9.958-6.961,11.457-6.961c1.498,0-0.177,9.693,7.578,9.693c2.996,0,4.053-1.322,4.053-3.525     s-3.701-2.644-3.701-9.605S91.578,323.413,86.82,323.413z M47.871,316.893c-8.901,0-21.855,14.716-21.855,24.409     c0,5.199,1.41,10.575,6.433,10.575c5.023,0,9.782-6.08,11.985-9.077c2.203-2.996,0.176,14.1-1.41,23.529     c-1.586,9.429-4.054,17.888,1.498,17.888c5.551,0,6.345-17.096,7.843-35.777s3.261-18.593,3.261-23.793     C55.625,319.447,52.364,316.893,47.871,316.893z M32.537,340.244c1.498-7.755,14.011-20.797,14.011-11.808     C46.548,333.724,32.537,349.85,32.537,340.244z M270.289,329.141c-5.092,4.591-4.405,4.055-3.083-2.202     c1.321-6.258,5.288-26.085,5.288-28.288c0-2.202-0.266-5.375-4.143-5.375c-6.169,0-4.671,8.195-7.138,23.353     c-2.204,13.543-4.671,23.353-5.082,28.64c-0.411,5.287-0.471,5.287,2.438,5.287c2.908,0,1.322,2.731,4.229,2.731     c5.287,0,23.441-6.345,23.441-17.448C286.24,324.735,275.665,324.294,270.289,329.141z M268.264,343.505     c0-3.966,5.904-13.395,10.31-9.517C281.658,338.306,269.145,347.206,268.264,343.505z M314.791,321.563     c-7.858,0-9.605,6.609-11.544,6.609s1.587-6.609-3.349-6.609c-3.877,0-4.406,4.406-5.109,14.012     c-0.707,9.604-0.883,14.628,3.348,14.628c6.168,0,3.348-14.452,12.602-18.683c5.223-2.387,8.724-2.644,8.724-6.344     C319.462,322.444,316.378,321.563,314.791,321.563z M332.239,298.21c-3.172,0-4.494,2.556-4.494,4.318s1.322,5.11,4.626,5.11     c3.306,0,4.627-2.114,4.627-4.229C336.998,301.03,335.412,298.21,332.239,298.21z M331.623,322.268     c-1.851,0-2.203,1.763-2.908,4.671s-5.288,11.455-5.288,17.977c0,6.521,7.139,8.02,7.139,3.701s0.802-8.645,3.7-13.659     C338.496,327.644,335.677,322.268,331.623,322.268z M355.68,301.911c-3.437,5.111-7.755,12.249-11.367,28.111     c-3.613,15.861-3.438,22.03,1.322,22.03c2.555,0,4.141-2.026,4.759-7.843c0.616-5.816,3.348-21.942,9.516-34.103     c1.309-2.578,3.966-3.878,3.966-7.183C363.875,299.621,359.116,296.801,355.68,301.911z M380.178,294.95     c-3.437,0-4.583,1.938-8.195,12.688c-3.613,10.751-8.459,23.177-10.223,32.694c-1.762,9.517,0,11.279,2.645,11.279     c4.405,0,4.318-5.022,5.815-11.984c1.498-6.962,5.375-20.356,11.897-34.721C385.212,298.087,383.614,294.95,380.178,294.95z      M403.266,302.352c2.498,0,3.877-1.674,3.877-5.022c0-5.816-9.516-6.697-9.516-0.793     C397.627,299.443,399.476,302.352,403.266,302.352z M390.047,315.923c-1.635,0-4.405,0.353-5.463,7.358     s-4.759,12.293-6.962,17.228s-2.114,11.104,2.819,11.104c4.936,0,4.23-9.693,8.989-18.241c3.411-6.13,4.67-11.191,4.67-12.866     C394.101,318.831,393.22,315.923,390.047,315.923z M418.775,326.762c0.089-3.877-2.732-9.781-9.87-5.023     c-7.138,4.759-12.072,11.633-12.072,18.858c0,4.847,2.379,8.9,6.433,8.9c6.697,0,8.636-8.106,8.636-3.789     c0,4.318,1.763,6.345,4.318,6.345c3.084,0,3.438-2.996,3.172-9.518C419.128,336.015,418.687,330.64,418.775,326.762z      M411.284,333.943c-0.999,2.941-4.846,8.284-7.005,6.477c-2.159-1.806-0.21-5.826,1.233-7.666     c1.762-2.247,4.158-4.376,5.771-2.952C411.541,330.027,412.122,331.477,411.284,333.943z M453.099,341.742     c-2.952,0-3.085-0.969-3.085-4.361s0.045-9.474-4.317-9.474c-6.178,0-6.036,6.478-6.036,0.969c0-2.467-1.366-4.053-4.363-3.788     c-2.994,0.264-3.788,2.031-3.744,4.254c0.045,2.223,0.221,5.615-2.644,10.639s-4.23,10.926,0.265,12.381     c4.493,1.453,6.198-4.023,7.622-7.446c1.719-4.131,5.552-6.521,5.288-3.129c-0.265,3.393,1.717,8.548,6.607,8.548     C453.583,350.334,456.051,341.742,453.099,341.742z M485.984,319.715c0-4.643-4.99-3.701-8.575-3.701     c-1.165,0-2.845,0.058-4.687,0.146c1.566-4.708,2.925-8.442,2.925-9.899c0-3.465-2.055-4.054-3.525-4.054     c-2.055,0-6.196,8.479-8.382,14.521c-0.747,0.059-1.444,0.116-2.017,0.168c-3.819,0.353-7.053,2.17-6.581,5.051     c0.321,1.975,0.471,4.156,6.404,3.644c-0.854,5.116-1.294,10.506-1.294,13.24c0,4.265,0.999,12.139,9.283,12.139     c8.283,0,10.341-6.931,5.992-6.931s-7.521,3.406-7.521-6.111c0-4.257,0.971-9.043,2.215-13.609     C480.105,323.209,485.984,324.586,485.984,319.715z" style="fill-rule:evenodd;clip-rule:evenodd;fill:#1B1B1B;"/></g></g></g></svg>