<svg xmlns="http://www.w3.org/2000/svg" xmlns:xlink="http://www.w3.org/1999/xlink" width="31" height="31" viewBox="0 0 31 31"><defs><path id="z4rka" d="M826.5 6154.25a15.25 15.25 0 1 1-30.5 0 15.25 15.25 0 0 1 30.5 0zm-2.38 0a12.87 12.87 0 1 0-25.74 0 12.87 12.87 0 0 0 25.74 0zm-20.49-3.82h2.86v11.44h-2.86zm15.24 3.53v7.92l-2.85-.01v-6.67c-.04-.23-.7-1.83-1.9-1.91a2.43 2.43 0 0 0-2.86 1.9v6.68h-2.86v-11.44h2.86v1.9c.16-.07 1.36-1.86 3.8-1.9 3.14.04 3.7 2.39 3.8 3.53zm-12.38-5.91a1.43 1.43 0 1 1-2.86 0 1.43 1.43 0 0 1 2.86 0z"/></defs><g><g transform="translate(-796 -6139)"><use fill="#b2b2b2" xlink:href="#z4rka"/></g></g></svg>