<svg xmlns="http://www.w3.org/2000/svg" xmlns:xlink="http://www.w3.org/1999/xlink" width="31" height="31" viewBox="0 0 31 31"><defs><path id="hbjda" d="M1141 6154.5c0 8.56-6.94 15.5-15.5 15.5-8.56 0-15.5-6.94-15.5-15.5 0-8.56 6.94-15.5 15.5-15.5 8.56 0 15.5 6.94 15.5 15.5zm-2.422 0c0-7.223-5.855-13.078-13.078-13.078-7.223 0-13.078 5.855-13.078 13.078 0 7.223 5.855 13.078 13.078 13.078 7.223 0 13.078-5.855 13.078-13.078zm-9.816.363h-2.28v7.387h-2.684v-7.387h-1.976v-2.736h1.976V6150c0-1.27.622-3.25 3.345-3.25l1.996.011v2.656h-1.741c-.292 0-.916.14-.916.743v1.968h2.696z"/></defs><g><g transform="translate(-1110 -6139)"><use fill="#b2b2b2" xlink:href="#hbjda"/></g></g></svg>