<svg xmlns="http://www.w3.org/2000/svg" xmlns:xlink="http://www.w3.org/1999/xlink" width="14" height="15" viewBox="0 0 14 15"><defs><path id="fc2ra" d="M873.333 1125.5a2.338 2.338 0 0 0-2.333-2.334 2.338 2.338 0 0 0-2.333 2.333 2.338 2.338 0 0 0 2.333 2.334 2.338 2.338 0 0 0 2.333-2.334zM871 1120.54a4.964 4.964 0 0 1 4.958 4.958 4.964 4.964 0 0 1-4.958 4.959 4.964 4.964 0 0 1-4.958-4.959 4.964 4.964 0 0 1 4.958-4.958zm7 4.958c0-3.864-3.135-7-7-7s-7 3.136-7 7c0 3.865 3.135 7 7 7s7-3.135 7-7z"/></defs><g><g transform="translate(-864 -1118)"><use fill="#5a5a5a" xlink:href="#fc2ra"/></g></g></svg>