<svg xmlns="http://www.w3.org/2000/svg" xmlns:xlink="http://www.w3.org/1999/xlink" width="30" height="31" viewBox="0 0 30 31"><defs><path id="mpbba" d="M871.12 6154.37a15 15 0 1 1-30 0 15 15 0 0 1 30 0zm-2.34 0a12.66 12.66 0 1 0-25.31 0 12.66 12.66 0 0 0 25.31 0zm-5.16 0a7.5 7.5 0 1 1-15 0 7.5 7.5 0 0 1 15 0zm-6.14-1.3c.14.29.27.6.4.91.53-.1 1.09-.15 1.69-.15.75 0 1.55.1 2.4.27a5.8 5.8 0 0 0-1.25-3.34 9.08 9.08 0 0 1-3.24 2.3zm-2.6-4.4c.5.64 1.25 1.7 2.02 3.2a7.61 7.61 0 0 0 2.87-2.06 5.81 5.81 0 0 0-4.89-1.15zm-4.43 4.29H851c1.07 0 2.85-.12 4.62-.64a17.87 17.87 0 0 0-2.09-3.19 5.87 5.87 0 0 0-3.1 3.83zm1.2 5.18c.31-.47.84-1.17 1.62-1.88.81-.74 1.9-1.48 3.3-1.95l-.34-.77a18.41 18.41 0 0 1-5.95.75v.08a5.8 5.8 0 0 0 1.38 3.77zm6.55 1.7a29 29 0 0 0-1.15-4.28 7.94 7.94 0 0 0-3.04 1.84 8.54 8.54 0 0 0-1.36 1.67 5.81 5.81 0 0 0 5.55.77zm3.67-4.4a10.4 10.4 0 0 0-2.3-.27h-.01c-.42 0-.82.03-1.2.09.4 1.17.78 2.47 1.08 3.93a5.85 5.85 0 0 0 2.43-3.74z"/></defs><g><g transform="translate(-841 -6139)"><use fill="#b2b2b2" xlink:href="#mpbba"/></g></g></svg>