<svg xmlns="http://www.w3.org/2000/svg" xmlns:xlink="http://www.w3.org/1999/xlink" width="33" height="32" viewBox="0 0 33 32"><defs><path id="ujwka" d="M737.25 6154.25a15.75 15.75 0 1 1-31.5 0 15.75 15.75 0 0 1 31.5 0zm-2.46 0a13.29 13.29 0 1 0-26.58 0 13.29 13.29 0 0 0 26.58 0zm-7-3.44l.01.05v.06c.22 5.65-3.85 10.22-9.1 10.22a9.24 9.24 0 0 1-5.08-1.55 5.1 5.1 0 0 0 4.5-1.45c-1.46 0-2.8-1.34-2.9-2.37.3.04.97.1 1.35-.11a3.35 3.35 0 0 1-2.5-3.42c.33.34 1.03.42 1.42.4a3.66 3.66 0 0 1-.99-4.63 9.14 9.14 0 0 0 6.88 3.63 3.71 3.71 0 0 1-.08-.78c0-1.93 1.46-3.5 3.25-3.5.92 0 1.76.41 2.35 1.08.52 0 1.57-.46 2.03-.77a3.7 3.7 0 0 1-1.36 1.9 5.4 5.4 0 0 0 1.8-.55 5.86 5.86 0 0 1-1.57 1.79z"/></defs><g><g transform="translate(-705 -6138)"><use fill="#b2b2b2" xlink:href="#ujwka"/></g></g></svg>